<svg xmlns="http://www.w3.org/2000/svg" xmlns:xlink="http://www.w3.org/1999/xlink" viewBox="0,0,256,256" width="60px" height="60px" fill-rule="nonzero"><g fill="#99415b" fill-rule="nonzero" stroke="none" stroke-width="1" stroke-linecap="butt" stroke-linejoin="miter" stroke-miterlimit="10" stroke-dasharray="" stroke-dashoffset="0" font-family="none" font-weight="none" font-size="none" text-anchor="none" style="mix-blend-mode: normal"><g transform="scale(10.66667,10.66667)"><path d="M20.97,11.819l-0.001,0.001c0,0.965 -0.791,1.75 -1.764,1.75c-0.974,-0.003 -1.762,-0.787 -1.762,-1.753c0,-0.555 0.26,-1.049 0.665,-1.37l0.004,-0.003l0.007,-0.007c0.056,-0.042 0.119,-0.084 0.182,-0.125c0,0 0.008,0 0.008,-0.007c0.028,-0.014 0.056,-0.035 0.084,-0.05c0.007,0 0.014,-0.006 0.021,-0.006c0.028,-0.014 0.063,-0.028 0.098,-0.042c0.034,-0.014 0.071,-0.027 0.099,-0.041c0.007,0 0.013,-0.007 0.02,-0.007c0.028,-0.007 0.056,-0.021 0.085,-0.028c0.007,0 0.02,-0.007 0.028,-0.007c0.034,-0.007 0.063,-0.014 0.098,-0.02h0.007l0.105,-0.022c0.007,0 0.02,0 0.028,-0.007c0.028,0 0.056,-0.007 0.084,-0.007h0.034c0.035,0 0.071,-0.007 0.112,-0.007h0.091c0.028,0 0.05,0 0.078,0.007h0.014c0.056,0.007 0.112,0.014 0.168,0.028c0.808,0.176 1.405,0.88 1.407,1.723z"></path><path d="M10.028,1.39h11.019l-2.529,7.4c-0.105,0.02 -0.21,0.055 -0.315,0.09l-2.661,-5.385l-2.67,5.35c-0.105,-0.034 -0.218,-0.055 -0.33,-0.076z"></path><path d="M10.196,11.813c0,-0.001 0,-0.003 0,-0.005c0,-0.812 0.56,-1.495 1.318,-1.687l0.012,-0.003v-0.001c0.034,-0.007 0.063,-0.014 0.098,-0.02h0.02c0.029,-0.008 0.056,-0.008 0.085,-0.015h0.028c0.028,0 0.049,-0.007 0.077,-0.007h0.273c0.028,0 0.049,0.007 0.071,0.007c0.014,0 0.02,0 0.035,0.007c0.027,0.007 0.048,0.007 0.077,0.014c0.007,0 0.014,0 0.028,0.007l0.098,0.02h0.007c0.028,0.008 0.056,0.015 0.084,0.029c0.007,0 0.014,0.007 0.028,0.007c0.021,0.007 0.049,0.014 0.071,0.027c0.007,0 0.014,0.007 0.02,0.007c0.028,0.014 0.056,0.021 0.085,0.035h0.007c0.034,0.013 0.064,0.03 0.092,0.05l-0.001,-0.001h0.007c0.028,0.014 0.056,0.034 0.085,0.048c0.007,0 0.007,0.007 0.013,0.007c0.028,0.014 0.05,0.035 0.078,0.049l0.007,0.007c0.084,0.062 0.161,0.132 0.238,0.201l0.007,0.007c0.299,0.313 0.484,0.736 0.484,1.203c0,0.002 0,0.004 0,0.007c-0.033,0.942 -0.81,1.693 -1.765,1.693c-0.955,0 -1.732,-0.751 -1.765,-1.69v-0.003z"></path><ellipse cx="4.633" cy="11.819" rx="1.765" ry="1.751"></ellipse><path d="M2.496,17.802c0.168,-1.015 0.637,-1.966 1.086,-2.877c0.028,-0.055 0.049,-0.104 0.078,-0.16c0.153,0.056 0.315,0.098 0.483,0.126c-0.266,1.473 0.49,2.994 1.962,3.745l0.266,0.139l0.286,-0.104c1.226,-0.431 2.361,-1.133 3.363,-2.071c0.545,-0.505 1.025,-1.068 1.435,-1.681l0.022,-0.035c0.161,0.027 0.323,0.034 0.484,0.034c1.45,-0.003 2.668,-0.98 3.027,-2.305l0.005,-0.022h1.176c0.362,1.349 1.583,2.327 3.033,2.327h0.001c0.581,0 1.119,-0.16 1.583,-0.43c0.182,0.52 0.238,1.063 0.14,1.605h0.001c-0.169,0.92 -0.732,1.683 -1.505,2.125l-0.015,0.008c-0.764,0.438 -1.703,0.577 -2.691,0.716c-0.658,0.084 -1.22,0.186 -1.771,0.314l0.118,-0.023c-1.457,0.355 -2.857,1.05 -4.216,1.717c-1.738,0.854 -3.377,1.66 -4.897,1.66c-0.007,0 -0.015,0 -0.023,0c-0.804,0 -1.548,-0.257 -2.153,-0.691c-1.537,-1.056 -1.461,-3.034 -1.278,-4.117z"></path></g></g></svg>